# Triangulated OBJ File
# File Triangulated by FalconCoding (https://github.com/StefanJohnsen)

# Original File      : emitter.obj
#          Vertices  : 4
#          Polygons  : 1
#          Triangles : 0

# Triangles created to replace polygons   : 2
# Total triangles of existing and created : 2
                                                                                                    
# Please note that any comments regarding the number of triangles and faces below,
# originating from the original file, will be incorrect for this triangulated file.
# Please update or remove old metrics information.
#____________________________________________________________________________________________________
#

# Blender v2.90.0 OBJ File: 'vault.blend'
# www.blender.org
o emitter_Plane
v -2.500000 18.000000 2.500000
v 2.500000 18.000000 2.500000
v -2.500000 18.000000 -2.500000
v 2.500000 18.000000 -2.500000
vn 0.0000 -1.0000 0.0000
s off
f 1//1 3//1 4//1
f 1//1 4//1 2//1
